<?xml version="1.0" encoding="UTF-8"?>
<svg id="Capa_1" data-name="Capa 1" xmlns="http://www.w3.org/2000/svg" viewBox="0 0 251.12 199.28">
  <defs>
    <style>
      .cls-1 {
        fill: #1d1d1d;
        stroke-width: 0px;
      }
    </style>
  </defs>
  <path class="cls-1" d="M157.66,94.04c1.67-2.31,4.68-2.53,7.77-1.58,3.17.98,4.54,3.64,4.95,6.75.94,7.19-3.78,13.54-11.12,15.38-1.31.33-3,1.12-3.55,2.2-5.36,10.42-14.52,14.88-25.47,15.22-6.94.22-14.19-.64-20.86-2.57-12.97-3.75-20.83-13.31-23.44-26.23-1.87-9.23-1.98-18.84-2.51-28.3-.35-6.34-.07-12.72-.07-19.99-2.17,1.54-3.6,2.53-5.01,3.56-2.16,1.57-4.44,1.93-6.08-.42-1.57-2.25-.7-4.43,1.41-6.05,2.04-1.56,4.12-3.07,6.19-4.59,14.9-10.95,29.81-21.89,44.92-32.98,8.26,6.04,16.42,12,24.66,18.02,2.8-4.63-.97-8.24-1.48-12.56h20.53c-.48,1.59-.88,2.9-1.29,4.21-.29.93-.8,1.84-.87,2.79-.14,1.92.19,3.89-.09,5.78-1.23,8.35.65,15,8.99,18.91,2.37,1.11,4.1,3.63,2.17,6.41-1.98,2.86-4.46,1.6-6.73.08-1.15-.77-2.28-1.58-4.27-2.97,0,2.7.05,4.66-.01,6.61-.13,4.23-.04,8.5-.54,12.69-1.19,10-7.46,17.06-17.31,19.28-12.51,2.82-25.19,3.42-37.9,1.55-2.76-.41-6.91-.51-6.85-4.09.03-1.82,3.37-4.37,5.71-5.24,12.19-4.56,24.67-4.06,37.1-.89,1.58.4,2.95,1.66,5.04,1.98-1.23-1.22-2.25-2.97-3.73-3.55-3.43-1.34-7.03-2.48-10.67-3.04-8.97-1.38-17.96-1.16-26.75,1.24-10.98,3-14.22,8.63-12.48,21.02,3.01,21.57,29.68,32.65,47.01,19.51,1.32-1,2.7-2.1,3.57-3.47,2.99-4.69,5.61-9.5,12.06-10.38,1.45-.2,3.36-2.46,3.71-4.06.55-2.55.71-5.73-.41-7.9-.74-1.43-4.01-1.55-6.29-2.31ZM123.34,41.01c-6.44,1.08-10.34,7.53-7.89,12.48.55,1.12,3.43,1.37,5.27,1.46.84.04,2.45-1.21,2.5-1.96.25-3.88.12-7.79.12-11.99ZM133.96,54.76c1.63-8.46-1.57-14.21-7.58-13.4,0,3.25.2,6.58-.06,9.87-.24,3.17,1.09,4.19,4,3.85,1.24-.14,2.49-.22,3.63-.32ZM115.17,62.23c-.06,3.13-.75,5.88,3.91,5.86,4.14-.02,4.57-1.87,4.32-5.11-.2-2.7.76-5.59-3.94-5.53-4.06.05-4.81,1.8-4.3,4.78ZM134.35,63.08c.18-3.07.73-5.65-3.94-5.66-4.67,0-4.07,2.63-4.03,5.45,0,.39.05.78,0,1.16-.42,2.98.75,3.85,3.82,4.02,4.35.25,4.61-1.99,4.16-4.97Z"/>
  <path class="cls-1" d="M99.86,158.4c-5.13-.39-5.37-.17-4.86,3.61,1.86.98,3.46,1.82,5.06,2.67-1.49.95-2.97,1.9-5.31,3.39v15.78h-4.72c0-4.18,0-8.24,0-12.3q0-5.01-5.05-4.94c-.99.02-1.99.15-3.32.26v16.88h-4.74c0-4.58,0-9.04,0-13.49,0-1.79.31-3.75-2.49-3.87-.16,0-.24-2.08-.35-3.19,3.51.06,2.36-2.71,3.02-4.58.52-1.47,1.86-3.37,3.16-3.67,1.93-.45,4.18.22,6.23.69.34.08.36,1.55.61,2.81-3.17-.26-6.73-.94-5.05,4.41,1.09.05,2.34.03,3.56.19,3.15.43,4.7-.5,4.57-4.07-.14-3.83,2.77-4.53,5.83-4.42,2.16.08,4.62.16,3.86,3.85Z"/>
  <path class="cls-1" d="M47.22,159.91c-2.08,1.72-3.61,2.16-5.83.25-3.66-3.14-9.19-1.85-11.52,2.37-2.49,4.5-2.39,9.18-.1,13.66,2.35,4.61,7.88,5.77,11.69,2.36,2.08-1.86,3.69-1.78,5.64-.22-2.34,4.97-7.16,7.15-13.15,6-6.41-1.23-10.07-5.78-10.66-13.24-.59-7.55,2.99-14.01,8.85-15.94,5.95-1.96,11.8-.18,15.09,4.76Z"/>
  <path class="cls-1" d="M71.73,173.4c0,6.87-4.22,11.22-10.89,11.23-6.41,0-10.55-4.32-10.61-11.09-.06-6.91,4.07-11.15,10.87-11.13,6.51.01,10.63,4.27,10.64,10.99ZM67.08,173.24c-.06-4.13-2.56-6.95-6.13-6.95-3.66,0-6.18,3.07-6.06,7.39.11,4.16,2.62,7.03,6.11,7,3.64-.04,6.15-3.11,6.09-7.44Z"/>
  <path class="cls-1" d="M120.59,174.84h-15.14c.5,5.11,3.94,7.17,8.34,5.4q2.57-1.03,4.54,1.19c-3.4,3.76-9.45,4.29-13.83,1.22-3.98-2.79-5.42-9.69-3.05-14.68,2.18-4.6,7.74-6.77,13.13-5.11,4.9,1.51,7.07,5.63,6,11.97ZM105.26,171.23h11.15c-.72-3.81-2.76-5.31-6.04-5.04-3.02.25-4.91,1.77-5.11,5.04Z"/>
  <path class="cls-1" d="M143.85,174.9h-15.11c.06,4.9,3.73,7.35,8.04,5.29,2.41-1.15,3.69-.75,4.81,1.4-4.11,3.69-9.96,4.06-14.11.96-4.05-3.02-5.26-10.1-2.58-15.1,2.25-4.21,7.53-6.14,12.67-4.64,4.89,1.43,7.05,5.36,6.28,12.08ZM128.3,171.31h11.19c-.53-3.54-2.31-5.18-5.45-5.16-3.2.02-5.27,1.49-5.75,5.16Z"/>
  <path class="cls-1" d="M190.27,171.56c.3-4.62-1.11-6.24-5.29-6.01-1.64.09-3.24.75-4.88.91-.82.08-1.7-.37-2.55-.58l-.03-1.56c3.02-.59,6.04-1.65,9.06-1.67,4.2-.04,6.69,2.63,6.86,6.76.18,4.22.13,8.46-.03,12.68-.03.74-1.15,1.43-1.77,2.15-1.92-2.32-3.72-.28-5.51.22-6.18,1.72-11.3-2.36-10.34-8.32.62-3.86,4.67-6.43,9.44-5.84,1.63.2,3.21.79,5.05,1.27ZM190.6,176.1c-.23-3.02-3.41-2.63-5.87-2.81-3.72-.28-6.38,1.61-6.19,4.2.21,2.91,2.09,4.2,4.92,4.32,3.79.16,7.06-2.02,7.15-5.71Z"/>
  <path class="cls-1" d="M227.86,174.72h-15.51c.32,5.7,4.23,8.26,9.55,6.66,1.1-.33,2.33-.22,3.53.16-4.68,4.06-9.35,4.16-13.2.86-3.76-3.23-4.8-10.11-2.26-14.88,2.15-4.03,6.95-5.93,11.52-4.57,4.76,1.43,6.73,4.89,6.36,11.78ZM212.12,171.6h12.45c-.28-4.28-2-6.04-5.83-6.08-4-.05-6.06,1.75-6.62,6.08Z"/>
  <path class="cls-1" d="M171.08,178.39c-2.42,5.48-7.33,7.4-12.77,5.96-6.27-1.66-9.68-6.38-9.98-13.83-.29-7.29,3-13.03,8.54-14.92,5.91-2.01,10.93-.53,14.92,5.21-2.01-.4-3.36-.3-4.24-.89-6.72-4.57-14.47-1.47-15.52,6.6-.4,3.07-.16,6.51.86,9.41,2.14,6.05,9.54,7.79,14.69,3.99,1-.74,2.32-1.03,3.49-1.53Z"/>
  <path class="cls-1" d="M199.62,161.22c.03-2.52-.2-5.89,4.13-6.34,1.99-.21,4.07-.22,4.7,2.7-2.86.47-6.92-.67-5.58,4.04,1.94.89,3.68,1.69,5.41,2.49-1.67.71-3.33,1.41-5.54,2.35,0,4.55.08,9.65-.07,14.75-.03.95-.98,1.87-1.51,2.8-.49-.98-1.36-1.94-1.39-2.93-.14-4.98-.07-9.97-.07-14.54-1.53-.95-2.66-1.66-3.8-2.37,1.02-.81,2.05-1.62,3.71-2.93Z"/>
  <path class="cls-1" d="M120.77,123.57c-5.1-1.08-9.73-4.62-13.23-9.75-1.15-1.68-1.87-3.83.48-4.85.77-.34,2.78,1.13,3.65,2.23,3.3,4.21,6.36,8.61,9.1,12.38Z"/>
</svg>