<?xml version="1.0" encoding="UTF-8"?>
<svg id="Capa_1" data-name="Capa 1" xmlns="http://www.w3.org/2000/svg" viewBox="0 0 251.12 199.28">
  <defs>
    <style>
      .cls-1 {
        fill: #1d1d1d;
        stroke-width: 0px;
      }
    </style>
  </defs>
  <path class="cls-1" d="M110.67,147.95c-2.61,1.13-4.97,1.88-7.01,3.14-1.01.62-1.57,2.13-2.09,3.35-2.47,5.85-6.06,8.09-11.44,6.88-3.73-.83-5.83-3.47-7.16-6.85-.46-1.17-.81-2.38-1.32-3.9-2.13,2.5-3.88,4.86-5.94,6.9-11.17,11.1-28.83,8.11-34.77-6.21-1.79-4.32-2.46-9.4-2.43-14.12.06-9.41,2.99-18.08,9.42-25.23,4.62-5.14,10.26-8.21,17.44-7.88,5.74.26,9.76,3.02,11.88,8.25,2.3,5.66,1.74,11.19-1.49,16.43-2.63,4.27-9.41,6.26-13.23,3.18,6.24-3.08,8.6-8.59,9.51-14.98.62-4.31-.87-8.17-3.65-9.64-3.04-1.6-7.07-.78-10.33,2.18-4.1,3.72-6.25,8.58-7.72,13.76-2.58,9.07-3.48,18.24-.66,27.42,3.02,9.84,10.8,12.89,19.66,7.67,7.02-4.13,11.31-10.28,12.51-18.42,1.06-7.18,5.5-12.34,11.36-13.09,4.18-.53,6.49.67,8.42,4.43,2.3,4.48,2.33,9.31,2.11,14.18-.05,1.05-.1,2.1-.15,3.2,3.76-.47,6.79-3.69,7.65-7.78,1.17-5.59,2.24-11.2,3.61-16.74.43-1.75,1.53-3.42,2.65-4.88,2.1-2.74,5.64-3.67,8.47-2.5,2.43,1,3.92,4.03,3.68,7.47-.6,8.68-3.78,16.45-8.29,23.79-.58.94-.61,2.22-.9,3.34,1.35.17,2.9.86,4,.42,5.34-2.14,8.43-6.2,9.44-11.92.9-5.04,1.81-10.09,3.11-15.03.55-2.11,1.88-4.13,3.25-5.87,2.01-2.55,5.69-3.4,8.29-2.11,2.83,1.4,3.64,4,3.51,6.95-.4,8.93-3.74,16.85-8.34,24.36-.54.88-.65,2.02-.96,3.04,1.34.24,2.88,1.04,3.98.63,5.55-2.06,8.27-6.43,9.89-12.02,1.01-3.48,2.97-6.79,5.04-9.81,1-1.45,3.12-2.48,4.93-2.97,5.31-1.43,9.19.4,10.44,4.52,1.61,5.33-.91,11.03-5.96,13.01-1.71.67-3.67.71-5.42,1.3-.79.27-1.99,1.26-1.93,1.81.3,2.91.54,5.94,1.56,8.64,1.42,3.76,4.63,4.52,7.89,2.04,5.67-4.3,8.66-10.23,10.41-17.06.91-3.55,2.39-7.09,4.33-10.18,1.14-1.82,3.51-3.27,5.63-3.97,4.65-1.55,8.78,0,10.34,3.27,2.02,4.24.54,10.45-3.52,12.94-2.02,1.24-4.52,2-6.89,2.3-2.22.29-3,1.06-2.64,3.15.39,2.23.53,4.55,1.27,6.66,1.61,4.62,5.26,5.61,9.03,2.47,4.68-3.9,7.57-9.01,9.33-14.81.26-.86.69-1.68,1.04-2.51.32.05.64.1.96.15,0,.84.28,1.81-.05,2.5-2.09,4.44-3.9,9.08-6.58,13.14-3.04,4.61-7.63,6.65-13.38,5.25-5.33-1.3-7.71-5.06-8.86-9.99-.11-.46-.29-.91-.6-1.89-.98,1.63-1.69,2.87-2.47,4.07-3.28,5.02-7.2,9.03-13.92,8.09-5.35-.75-8.91-4.14-10.06-9.43-.28-1.3-.54-2.61-.76-3.69-3.18,1.9-6.15,3.54-8.94,5.44-.49.34-.56,1.91-.25,2.7,2.32,5.89,3.29,11.96,2.98,18.26-.04.79-.08,1.58-.23,2.35-.58,2.93-1.56,5.63-4.97,6.24-3.22.58-5.83-.91-7.2-3.57-1.51-2.92-2.86-6.17-3.21-9.4-.66-6.16-.57-12.41-.78-18.62-.04-1.04,0-2.08,0-3.4-3.37,2.17-6.36,4.1-9.34,6.01,1.03,4.54,2.4,9.26,3.07,14.08.44,3.15.03,6.47-.32,9.68-.29,2.64-1.8,4.64-4.55,5.22-2.66.56-4.87-.53-6.59-2.5-3.22-3.7-4.11-8.31-4.36-12.95-.33-6.01-.2-12.04-.28-18.06,0-.75-.1-1.5-.16-2.29ZM100.8,140.65c-.78-3.13-1.18-5.88-2.2-8.39-.51-1.25-2.18-2.89-3.23-2.83-1.28.08-2.97,1.52-3.59,2.81-1.09,2.26-2.01,4.84-2.08,7.3-.15,5.45.13,10.94.53,16.38.13,1.71,1.1,3.58,3.49,3.08,3.08-.65,5.87-6.83,4.37-9.62-1.01-1.88-.89-3.45.56-5.11.93-1.06,1.47-2.47,2.14-3.63ZM143.2,181.8c.48.07.97.15,1.45.22.77-1.58,1.96-3.09,2.24-4.75,1.25-7.29-.07-14.28-3.12-20.95-.32-.7-1.47-1.02-2.24-1.52-.39.79-1.16,1.6-1.12,2.37.35,6.17.77,12.35,1.36,18.51.2,2.07.93,4.09,1.42,6.13ZM125.25,172.31c-.13-.04-.26-.07-.39-.11-.1-1.37,0-2.79-.32-4.11-.99-3.98-2.06-7.95-3.31-11.86-.21-.66-1.48-.97-2.26-1.45-.32.54-.96,1.1-.92,1.61.63,7.82,1.33,15.63,2.1,23.43.06.65.79,1.23,1.2,1.85.68-.48,1.76-.84,1.96-1.47.8-2.59,1.32-5.26,1.94-7.91ZM118.49,146.92c.71-.77,1.23-1.12,1.43-1.59,1.93-4.71,4.03-9.36,5.6-14.19.76-2.34.71-5.02.56-7.52-.06-.98-1.38-1.89-2.13-2.83-.87.76-1.96,1.39-2.55,2.33-.66,1.04-1.07,2.34-1.22,3.58-.71,5.94-1.3,11.9-1.91,17.86-.06.62.1,1.26.21,2.37ZM140.74,146.34l.89.14c3.22-5.14,5.6-10.65,6.7-16.66.38-2.08.41-4.3.1-6.39-.15-.99-1.45-1.8-2.24-2.7-.79.75-2.1,1.4-2.28,2.28-1.09,5.26-2.01,10.57-2.78,15.89-.36,2.44-.27,4.95-.39,7.43ZM200.25,132.15c-.61-.79-1.34-2.59-2.65-3.24-2.06-1.02-3.37.82-3.94,2.51-1.07,3.15-1.97,6.39-2.59,9.66-.46,2.43.63,3.11,2.88,1.93,3.96-2.07,5.48-5.73,6.3-10.86ZM163.27,140.97c.21,2.55,1.28,2.99,3.28,2.14,3.56-1.5,6.95-7.49,6.03-11.28-.29-1.19-1.53-2.67-2.63-2.97-.85-.23-2.72.92-3.13,1.89-1.42,3.3-2.4,6.8-3.55,10.22Z"/>
  <path class="cls-1" d="M131.2,34.64c.49,0,1.05-.15,1.47.03.72.31,1.36.83,2.03,1.26-.47.64-.94,1.27-1.41,1.91-.46.62-.92,1.24-1.38,1.86.68.41,1.34,1.15,2.04,1.2,17.11,1.07,30.22,13.67,33.47,28.06,3.17,14.03-.45,26.19-10.88,36.15-1.64,1.57-2.04,2.67-.97,4.73,1.18,2.25,1.95,4.74,2.68,7.19.21.7-.09,1.94-.61,2.33-.45.35-1.85.15-2.3-.32-1.78-1.81-3.53-3.71-4.93-5.81-1.22-1.83-2.31-2.21-4.36-1.31-9.73,4.27-19.53,4.3-29.25-.04-1.9-.85-3-.54-4.16,1.21-1.35,2.03-2.97,3.91-4.67,5.67-.56.58-1.72.58-2.61.84-.22-.99-.81-2.08-.58-2.95.61-2.27,1.31-4.6,2.46-6.63,1.24-2.19.69-3.4-1.01-5.02-19.8-18.89-13.99-50.97,11.16-61.32,3.49-1.44,7.43-1.79,11.13-2.75.7-.18,1.4-.82,1.81-1.44.14-.21-.54-1.04-.91-1.53-.57-.74-1.21-1.44-1.81-2.15.9-.39,1.8-.81,2.72-1.16.26-.1.59-.02.88-.02v.02ZM160.69,77.97c.1-16.13-13.14-29.38-29.36-29.38-16.01,0-29.02,13.11-29.09,29.33-.07,15.86,12.98,29.06,28.9,29.22,16.16.17,29.45-12.95,29.55-29.18ZM96.77,76.14c1.64-11.9,7.35-21.28,17.82-27.38,10.54-6.15,21.64-6.13,32.89-1.7-8.36-5.91-24.49-6.13-35.19,1.23-9.79,6.73-15.48,15.76-15.52,27.85Z"/>
  <path class="cls-1" d="M138.09,37.88c2.53-5.37,6.7-6.75,11.88-6.01-1.21-2.87-2.28-5.42-3.37-7.97-1.26-2.94-3.6-4.72-6.56-5.53-6.02-1.65-12.12-1.66-18.14,0-3.18.87-5.57,2.82-6.85,6.02-1.04,2.6-2.3,5.1-3.47,7.66,1.28-.1,2.95-.33,4.62-.34,3.21-.02,5.61,1.51,7.5,4.04,1.1,1.46.99,2.39-.78,3.17-7.58,3.33-15.13,6.73-22.69,10.11-1.58.71-2.52.52-2.97-1.43-.76-3.33-.19-6.2,2.05-8.81,1.39-1.62,2.44-3.55,3.87-5.13,1.48-1.63.6-2.73-.3-4.14-.55-.86-.9-2.15-.68-3.1.13-.57,1.86-1.39,2.29-1.13.92.56,1.52,1.7,2.15,2.67.56.85.82,2.37,1.49,2.54.74.2,2.04-.59,2.66-1.32.87-1.01,1.61-2.3,1.93-3.59,1.18-4.8,4.17-7.82,8.83-9.02,6.31-1.62,12.69-1.66,19.01.08,4.59,1.27,7.27,4.39,8.67,8.89.47,1.52,1.45,2.97,2.5,4.2.62.72,2.25,1.56,2.66,1.27.91-.65,1.38-1.96,1.96-3.03.44-.81.59-2.14,1.22-2.41.8-.34,2.65-.08,2.81.37.37,1.01.37,2.55-.19,3.42-2.09,3.23-1.92,5.12,1.13,7.49,4.13,3.21,5.54,6.72,4.39,10.74-.43,1.5-1.14,2.26-2.77,1.53-7.92-3.54-15.84-7.08-23.75-10.63-.36-.16-.69-.4-1.11-.64ZM102.71,41.24c-.75-.8-1.16-1.25-1.58-1.7-.74.77-1.53,1.52-2.17,2.37-.06.08,1,1.29,1.15,1.21.85-.44,1.58-1.1,2.6-1.88ZM145.94,35.07c-.94-.74-1.61-1.5-1.8-1.39-.83.46-1.56,1.14-2.22,1.84-.06.07.86,1.33,1.02,1.26.89-.34,1.69-.93,3-1.72Z"/>
  <path class="cls-1" d="M185.78,172c-3.5,4.01-3.83,4.01-7.44,0-.1,1.55.03,2.85-.32,4-.22.73-1.16,1.24-1.78,1.85-.48-.63-1.34-1.24-1.39-1.91-.17-2.55-.21-5.13-.02-7.67.06-.87.85-2.24,1.5-2.37.8-.15,2.1.53,2.66,1.25,1.11,1.42,1.86,3.13,3.06,5.24,1.05-1.84,1.61-3.34,2.62-4.43.88-.96,2.25-1.47,3.41-2.18.49,1.06,1.29,2.1,1.39,3.2.22,2.24.22,4.54-.03,6.78-.09.76-1.2,1.41-1.84,2.1-.53-.71-1.29-1.34-1.52-2.14-.31-1.05-.2-2.21-.3-3.74Z"/>
  <path class="cls-1" d="M192.95,167.71c1.53-2.03,7.46-2.51,8.61-1.5.39.34.69,1,.7,1.52.07,2.85.08,5.71-.02,8.57-.02.53-.66,1.46-1.06,1.48-2.45.14-4.91.12-7.37.05-.32,0-.93-.76-.86-.91.21-.45.64-1.02,1.08-1.1.95-.18,2.02.09,2.92-.19.66-.2,1.15-.99,1.71-1.52-.54-.44-1.01-1.03-1.63-1.3-1.2-.52-2.47-.87-3.71-1.28,1.23-.33,2.48-.6,3.68-1.01.57-.2,1.05-.66,1.58-1-.51-.47-.96-1.21-1.55-1.35-1.33-.31-2.72-.33-4.09-.46Z"/>
  <path class="cls-1" d="M152.9,166.37c.87-.22,1.73-.58,2.6-.63,1.87-.1,3.76-.14,5.62,0,.98.07,1.93.57,2.89.88-.79.51-1.69.91-2.34,1.56-.55.54-1.08,1.33-1.16,2.06-.17,1.66.17,3.4-.15,5.01-.19.97-1.24,1.77-1.9,2.64-.59-.84-1.21-1.67-1.75-2.54-.13-.21-.01-.58-.02-.88-.1-3.02,1.27-6.77-4.15-7.15.12-.32.24-.63.36-.95Z"/>
  <path class="cls-1" d="M169.17,165.7c.91,1.14,1.9,1.85,1.85,2.46-.06.67-1,1.57-1.71,1.76-.43.11-1.63-.92-1.66-1.48-.04-.71.76-1.47,1.52-2.74Z"/>
  <path class="cls-1" d="M169.54,172.87c.72,1.26,1.49,2.03,1.45,2.74-.03.54-1.33,1.55-1.68,1.41-.71-.29-1.49-1.16-1.61-1.9-.08-.5.91-1.17,1.84-2.25Z"/>
  <path class="cls-1" d="M131.45,77.95c7.09,0,14.19.07,21.28-.04,2.55-.04,3.52.61,3.13,3.39-1.67,11.92-11.88,21.01-24.01,21.15-12.43.15-23.07-8.83-24.82-20.93-.47-3.24-.23-3.54,3.13-3.55,7.09-.02,14.19,0,21.28,0v-.02Z"/>
  <path class="cls-1" d="M134.83,74.04c-1.5-3.97-3.02-8.03-4.56-12.08-1.35-3.56-.92-5.6,1.03-7.03.83,2.58,1.8,5.31,2.57,8.1.78,2.79,1.52,5.61,1.95,8.46.14.94-.77,2.03-.98,2.55Z"/>
  <path class="cls-1" d="M126.74,63.02c4.14,5.08,4.95,9.07,2.33,11.74-1.05-3.89-2.09-7.72-3.13-11.55.27-.06.53-.13.8-.19Z"/>
</svg>