<?xml version="1.0" encoding="UTF-8"?>
<svg id="Capa_1" data-name="Capa 1" xmlns="http://www.w3.org/2000/svg" viewBox="0 0 251.12 199.28">
  <defs>
    <style>
      .cls-1 {
        fill: #1d1d1d;
        stroke-width: 0px;
      }
    </style>
  </defs>
  <path class="cls-1" d="M125.69,111.8c-29.97.31-52.77-25.79-48.41-54.69,5.33-35.29,45.7-52.54,74.95-32.01,1.04.73,1.8.97,3.05.28,2.12-1.18,4.58-.56,6.49,1.33,1.82,1.81,2.78,4.05,1.65,6.44-.76,1.62-.34,2.61.52,3.87,16.71,24.23,7.7,57.74-18.88,70.24-6.33,2.97-12.98,4.6-19.37,4.54ZM151.22,29.24c-16.29-12.99-43.07-12.86-59.53,5.61-16.21,18.19-14.42,46.33,3.92,62.3,18.58,16.18,46.73,14.08,62.57-4.63,15.62-18.45,11.59-43.03,1.09-54.97-1.53,1.76-2.94,3.58-4.56,5.19-1.09,1.08-1.1,1.87-.28,3.13,2.79,4.29,4.37,9.07,4.92,14.12,2.6,24-18.38,43.06-42.04,38.28-13.67-2.76-24.93-14.38-27.15-28.02-2.4-14.76,4.08-29.13,16.65-36.25,12.18-6.9,24.39-6.54,36.48.44.6.35,1.78.57,2.18.24,1.96-1.65,3.75-3.51,5.75-5.44ZM123.48,32.93c-1.24.15-3.5.21-5.65.72-13.93,3.35-23.05,14.05-24.29,28.33-1.87,21.51,19.85,38.64,40.38,31.86,20.64-6.81,28.44-30.76,15.69-48.33-.98-1.35-.88-2.12.26-3.23,3.04-2.96,5.94-6.05,8.94-9.04,1.19-1.18,1.69-2.34.39-3.71-1.37-1.43-2.5-.78-3.64.4-2.89,3-5.88,5.9-8.71,8.95-1.22,1.31-2.06,1.46-3.55.3-5.53-4.27-11.86-6.31-19.82-6.25Z"/>
  <path class="cls-1" d="M87.41,157.23c-3.54-.3-7.75-1.43-11.02-5.11-6.2-6.98-2.31-19.93,6.82-21.86,2.94-.62,6.17-.77,9.13-.29,6.54,1.05,10.81,6.78,10.56,13.43-.31,8.5-5.87,13.84-15.49,13.84ZM88.3,150.56c3.93.05,6.85-2.97,6.91-7.17.07-4.4-2.72-7.55-6.74-7.6-4.37-.05-7.36,2.83-7.44,7.16-.08,4.38,2.94,7.54,7.27,7.6Z"/>
  <path class="cls-1" d="M155.85,145.12c-.04-4.45-.05-8.89-.14-13.34-.04-1.8.54-2.54,2.5-2.5,5.17.1,10.34.05,15.5-.12,1.96-.06,2.73.43,2.65,2.49-.15,3.97-.07,3.96-3.99,3.92-2.37-.03-4.74.04-7.11-.03-1.41-.04-2.12.37-2.13,1.92,0,1.51.58,2.05,2.05,1.97,2.58-.14,5.18-.07,7.75-.28,2.09-.17,2.93.66,2.82,2.67-.03.5.04,1,.07,1.51.09,1.42-.46,2.12-2,2.08-2.87-.07-5.75.07-8.61-.06-1.82-.09-1.92.92-2.01,2.27-.1,1.52.72,1.85,1.98,1.81,3.01-.08,6.02-.1,9.03-.21,1.88-.07,2.95.43,2.91,2.64-.07,3.51-.09,3.73-2.78,3.79-5.38.12-10.77.15-16.15.31-1.82.06-2.41-.73-2.39-2.43.04-2.8-.04-5.6-.06-8.4.03,0,.06,0,.1,0Z"/>
  <path class="cls-1" d="M181.45,142.3c-.03-3.66-.04-7.33-.12-10.99-.04-1.65.6-2.27,2.29-2.25,5.39.04,10.78-.01,16.17-.14,1.65-.04,2.12.6,2.11,2.14-.03,4.3,0,4.3-4.27,4.27-2.3-.01-4.6.05-6.9-.03-1.53-.05-2.02.65-2.04,2.06-.03,1.45.68,1.89,2,1.83,2.73-.11,5.46-.13,8.19-.27,1.63-.09,2.46.48,2.36,2.19-.03.57.01,1.15.08,1.72.2,1.79-.52,2.42-2.35,2.33-2.79-.14-5.6.03-8.4-.04-1.76-.05-1.69,1.15-1.81,2.29-.15,1.36.61,1.8,1.8,1.78,3.16-.06,6.32-.07,9.48-.2,1.92-.08,2.71.63,2.69,2.62-.04,3.43-.12,3.73-2.57,3.78-5.46.13-10.92.15-16.37.32-1.83.06-2.4-.73-2.39-2.42.02-3.66-.05-7.33-.09-10.99.05,0,.1,0,.15,0Z"/>
  <path class="cls-1" d="M158.61,175.82c-.06,2.39-2.69,5.76-5.07,6.49-2.97.91-4.76.21-7.23-2.97-1.97.97-3.98,1.96-5.99,2.94-2.22,1.09-4.75.11-5.17-2.12-.13-.66.25-1.41.39-2.13.21.02.42.04.63.06.17.44.24.99.55,1.31.55.57,1.25.99,1.88,1.48.28-.62.72-1.22.8-1.86.41-3.11.14-4.27-1.7-7.61-.75,1.27-1.36,2.32-1.98,3.37-1.21,2.03-2.21,4.22-3.68,6.04-2.07,2.56-3.56,2.35-5.21-.34-5.08,3.21-5.71,3.21-7.75-.38-1.89.73-3.88,1.39-5.77,2.25-2.84,1.3-4.99.71-7.38-2.75-.59.91-.92,1.97-1.63,2.38-.96.55-2.35,1.01-3.29.71-.58-.19-1-1.91-.91-2.89.16-1.77.83-3.49,1.13-5.25.1-.6-.27-1.29-.42-1.94-.58.16-1.42.12-1.7.5-1.22,1.63-2.4,3.31-3.34,5.1-.51.98-.39,2.28-.81,3.33-.23.57-1.02.91-1.56,1.36-.27-.56-.85-1.18-.76-1.68.36-2.12.82-4.23,1.41-6.3,1.01-3.52,2.08-7.02,3.29-10.47.23-.65,1.25-1.03,1.9-1.53.08.74.39,1.54.21,2.2-.64,2.41-1.44,4.78-2.38,7.8,1.21-.89,1.84-1.64,2.62-1.86,1.02-.28,2.33-.48,3.2-.06.61.29,1.04,1.7.97,2.56-.15,1.7-.73,3.36-1.08,5.04-.17.81-.23,1.64-.33,2.47.18.12.36.24.54.36.68-.63,1.52-1.15,2-1.9.85-1.32,1.54-2.75,2.18-4.18,1.12-2.49,2.73-4.42,5.56-4.92,2.95-.52,4.99,1.16,4.88,4.14-.06,1.6-.52,3.19-.84,5.03,2.18-.35,3-1.85,3.6-3.55.47-1.35.72-2.8,1.33-4.09.28-.6,1.18-.91,1.8-1.35.09.68.37,1.39.24,2.02-.46,2.1-1.13,4.16-1.56,6.27-.12.59.15,1.61.57,1.85.43.24,1.58-.03,1.86-.45,1.21-1.82,2.28-3.75,3.27-5.71.48-.95.54-2.11,1.04-3.05.26-.5,1.04-.73,1.59-1.09.18.59.61,1.23.5,1.75-.44,2.03-1.11,4.01-1.57,6.04-.17.77-.01,1.61,0,2.41.25.11.51.22.76.33.81-.89,1.78-1.69,2.4-2.71,1.16-1.89,2.02-3.97,3.2-5.85.75-1.19,1.75-2.28,2.82-3.19.73-.62,1.61-.55,1.88.74.36,1.72.79,3.43,1.22,5.13.2.76.47,1.51.73,2.25.23.64.49,1.26.73,1.89.76-.33,1.73-.46,2.22-1.02.72-.83,1.2-1.93,1.59-2.98.88-2.37,2.38-4.1,4.76-4.95,2.22-.79,4.42.02,4.95,1.71.61,1.91-.67,4.26-2.79,4.95-.8.26-1.72.16-2.55.38-.76.2-1.46.59-2.19.9.71.86,1.5,2.48,2.13,2.42,1.59-.16,3.2-.92,4.62-1.74.73-.42,1.1-1.47,1.59-2.27.25-.41.39-.89.58-1.34.17.17.34.34.52.51ZM109.11,179.11c.27.38.72,1.69,1.52,1.95,1.4.46,2.44-.36,2.43-2.05,0-.22.24-.55.46-.66,1.8-.86,1.62-2.56,1.63-4.06,0-.66-.47-1.71-.99-1.9-.65-.24-1.75-.05-2.33.39-1.79,1.37-2.59,3.34-2.72,6.33ZM149.47,174.94c.17.24.34.47.52.71,1.76.49,3.28.14,4.18-1.67.24-.48.27-1.5-.01-1.71-.46-.33-1.49-.5-1.87-.21-1.05.81-1.89,1.89-2.81,2.87Z"/>
  <path class="cls-1" d="M63.21,157.4c-7.77.15-13.1-3.66-14.5-10.6-1.14-5.7.73-12.81,7.58-15.82,5.38-2.37,10.63-1.92,15.39,1.83.94.74,1.11,1.42.2,2.28-.57.54-1.17,1.08-1.64,1.7-1.01,1.35-1.98,1.4-3.47.54-3.13-1.82-7.27-1.15-9.31,1.23-1.93,2.27-2.1,7.14-.33,9.75,2.11,3.12,6.02,3.65,10,1.44.79-.44,2.17-1.11,2.54-.8,1.34,1.14,2.4,2.62,3.44,4.06.11.15-.59,1.03-1.05,1.41-2.72,2.31-6.01,2.9-8.87,2.99Z"/>
  <path class="cls-1" d="M116.58,129.77c2.59-.02,5.18,0,7.76-.09,1.68-.05,2.53.46,2.46,2.33-.14,3.9.83,4.11-3.86,3.95-2.37-.08-4.74.1-7.11.07-2.56-.03-1.54,1.88-1.73,3.09-.2,1.29.26,2.02,1.78,1.92,2.72-.18,5.45-.18,8.18-.32,1.45-.07,2.16.49,2.15,1.97-.02,4.63.31,4.82-4.12,4.39-1.92-.19-3.88.04-5.82,0-1.44-.03-2.11.47-2.04,2,.07,1.72-.08,3.45-.09,5.17,0,1.32-.61,1.9-1.95,2.02-5.39.49-5.55.36-5.56-5.04-.01-6.11-.05-12.22-.07-18.33-.01-3.02,0-3.01,2.92-3.01,2.37,0,4.74-.04,7.12-.06,0-.03,0-.05,0-.08Z"/>
  <path class="cls-1" d="M131.31,142.63c-.03-3.67-.06-7.33-.11-11-.02-1.26.28-2,1.8-2,5.32,0,10.64-.06,15.96-.19,1.75-.04,2.56.56,2.35,2.37-.07.64-.02,1.3.04,1.94.17,1.64-.55,2.11-2.15,2.05-2.94-.11-5.89,0-8.84.02-2.44.01-1.61,1.9-1.77,3.16-.17,1.38.55,1.93,1.94,1.85,2.72-.15,5.46-.17,8.18-.33,1.39-.08,2.02.49,2.01,1.84,0,.22,0,.43,0,.65-.01,4.02.13,4.19-3.79,3.87-2-.16-4.02.04-6.04,0-1.42-.03-2.13.44-2.1,1.98.04,1.65-.18,3.3-.14,4.95.05,1.68-.67,2.24-2.31,2.29-5.22.16-5.21.21-5.21-5.06,0-2.8-.05-5.6-.07-8.4.07,0,.15,0,.22,0Z"/>
  <path class="cls-1" d="M78.34,176.41c1.97-.44,3.93-.96,5.93-1.25.53-.08,1.29.47,1.7.95.2.24.01,1.15-.3,1.41-.45.38-1.2.68-1.75.59-1.87-.33-3.71-.84-5.56-1.28,0-.14-.01-.28-.02-.41Z"/>
  <path class="cls-1" d="M172.96,176.03c-1.98.42-3.95.96-5.95,1.17-.57.06-1.25-.85-1.88-1.32.66-.52,1.35-1.51,1.96-1.46,1.96.15,3.89.67,5.84,1.06,0,.18.02.37.03.55Z"/>
  <path class="cls-1" d="M131.07,90.8c-.24-2.91-.07-5.78-.79-8.42-1.09-3.98-2.49-7.95-4.4-11.59-.8-1.52-2.04-2.92-2.66-4.63-.02-.07-.07-.12-.11-.18-1.26-1.95-3.64-1.48-5.22-2.39-1.58-.91-2.43-2.96-4.84-2.14-.39.13-1.13-.33-1.53-.7-2.06-1.95-3.58-2.16-6.01-.81-.45.25-1.23.58-1.48.39-2.08-1.58-4.22-1.51-6.45-.21-.74-10.62,12.01-22.68,24.75-23.75,14.55-1.22,28.03,9.82,29.77,23.88,2.14,17.35-11.08,29.14-21.03,30.55Z"/>
  <path class="cls-1" d="M110,72.71c-.11,2.38-2.01,4.19-4.35,4.13-2.4-.06-4.3-2.12-4.21-4.53.09-2.26,2.15-4.2,4.4-4.14,2.43.07,4.28,2.09,4.16,4.55Z"/>
  <path class="cls-1" d="M103.64,63.93c-.02,1.61-1.27,2.82-2.91,2.82-1.62,0-2.93-1.25-2.96-2.81-.03-1.63,1.4-3.01,3.06-2.95,1.62.05,2.83,1.32,2.81,2.94Z"/>
  <path class="cls-1" d="M119.13,71.6c-1.62-.05-2.95-1.54-2.84-3.18.11-1.56,1.51-2.83,3.04-2.74,1.53.09,2.8,1.51,2.73,3.05-.06,1.57-1.45,2.92-2.93,2.87Z"/>
  <path class="cls-1" d="M110.62,63.41c-.12,1.54-.9,2.51-2.56,2.5-1.55-.01-2.42-.95-2.49-2.41-.08-1.6.9-2.65,2.45-2.7,1.56-.05,2.48.94,2.6,2.61Z"/>
  <path class="cls-1" d="M114.51,66.76c-.82-1.13-1.65-1.78-1.66-2.45,0-.54,1.08-1.63,1.47-1.54.69.15,1.56.94,1.72,1.61.12.5-.75,1.24-1.53,2.38Z"/>
  <path class="cls-1" d="M123.89,70.29c.49.91.99,1.42.95,1.89-.03.38-.82,1.07-1.06.99-.48-.17-1.08-.73-1.13-1.19-.04-.4.6-.87,1.24-1.7Z"/>
</svg>