<?xml version="1.0" encoding="UTF-8"?>
<svg id="Capa_1" data-name="Capa 1" xmlns="http://www.w3.org/2000/svg" viewBox="0 0 251.12 199.28">
  <defs>
    <style>
      .cls-1 {
        fill: #1d1d1d;
        stroke-width: 0px;
      }
    </style>
  </defs>
  <path class="cls-1" d="M127.21,118.32c-13.49-.61-24.82-2.68-34.4-10.39-9.29-7.47-10.16-19.78-1.99-28.44,5.29-5.6,12.01-8.69,19.29-10.47,13.13-3.2,26.14-2.69,38.72,2.58,6.99,2.93,13.25,7.05,15.95,14.57,2.25,6.27,1.29,12.41-2.91,17.74-5.46,6.93-13.04,10.43-21.36,12.36-4.88,1.13-9.92,1.55-13.3,2.05ZM156.15,92.89c-5.45-3.32-11.22-4.95-17.58-3.78-6.23,1.15-11.43,4.57-16.76,7.67-7.07,4.12-14.45,6.55-22.75,4.85-.16-.03-.37.18-.75.39,11.77,5.04,23.03,4.01,34.24-1.13,7.53-3.45,14.54-8.61,23.6-7.99ZM91.42,90.67c1.19-.21,1.93-.19,2.53-.46,6.05-2.81,12.1-5.62,18.11-8.52,4.49-2.17,8.76-4.93,13.43-6.57,3.16-1.11,6.83-.75,10.23-1.05-7-1.95-14.09-1.49-21.13-.12-7.38,1.43-14.25,4.08-19.64,9.64-1.79,1.85-3.17,3.93-3.52,7.08Z"/>
  <path class="cls-1" d="M150.19,34.66c.17-1.62.39-2.47.33-3.3-.21-2.86,1.58-3.07,3.74-3.09,2.2-.02,3.92.35,3.86,3.09-.03,1.59.19,3.21-.04,4.76-.63,4.15.87,7.23,4.44,9.26,2.83,1.62,3.49,3.97,3.38,7.08-.22,6-.06,12.01-.07,18.01,0,.95-.08,1.89-.45,3.26-10.5-11.55-24.06-15.5-38.77-15.74-14.74-.24-28.44,3.3-39.38,14.63-.37-.95-.59-1.26-.59-1.56-.03-7.06-.1-14.13.02-21.19.02-.98.75-2.19,1.52-2.87,11.73-10.31,23.54-20.53,35.29-30.82,1.57-1.38,2.8-1.31,4.37.02,6.52,5.54,13.11,10.99,19.69,16.47.65.54,1.36,1.01,2.67,1.98ZM141.98,36.94c.16-.2.31-.39.47-.59-.59-.5-1.19-.99-1.78-1.49-4.39-3.69-8.85-7.31-13.15-11.1-1.47-1.29-2.36-1.15-3.75.08-8.59,7.6-17.26,15.12-25.91,22.65-.82.72-1.73,1.34-2.6,2,.22.25.45.5.67.75,1.38-.87,2.79-1.72,4.15-2.63,5.05-3.39,9.99-6.95,15.15-10.17,7.16-4.46,14.73-4.91,22.48-1.52,1.44.63,2.84,1.34,4.27,2.01Z"/>
  <path class="cls-1" d="M88.83,161.05c-7.62,0-12.85-5-12.91-12.36-.06-7.52,5.2-12.77,12.82-12.78,7.86-.01,13,5.07,12.97,12.83-.02,7.39-5.17,12.31-12.88,12.31ZM94.2,148.73c.1-3.62-2.08-6.31-5.18-6.39-3.17-.08-5.51,2.42-5.61,6.02-.1,3.36,2.35,6.39,5.26,6.5,3.06.11,5.43-2.52,5.53-6.13Z"/>
  <path class="cls-1" d="M158.11,136.57c5.97,0,11.69-.18,17.39.09,2.25.11,1.17,2.4,1.18,3.67,0,.67-1.01,1.86-1.64,1.92-2.45.23-4.94,0-7.4.18-.7.05-1.35.91-2.02,1.4.67.6,1.29,1.62,2.03,1.72,1.91.25,3.88.17,5.81.08,2.31-.11,1.91,1.48,1.97,2.86.06,1.43.06,2.7-1.96,2.62-1.94-.08-3.9-.17-5.82.08-.75.1-1.77.98-1.98,1.7-.45,1.51.68,1.94,2.02,1.93,2.47,0,4.95.1,7.41.02,2.39-.08,2.13,1.51,2.12,3.03,0,1.45.17,2.84-2.06,2.79-5.03-.11-10.06.01-15.09-.11-.67-.02-1.87-.92-1.88-1.43-.12-7.4-.08-14.79-.08-22.54Z"/>
  <path class="cls-1" d="M183.98,148.6c0-3.35.04-6.71-.02-10.06-.03-1.47.53-2.05,2.02-2.03,4.94.05,9.89.06,14.83,0,2.37-.03,1.83,1.64,1.84,2.95,0,1.32.5,2.98-1.87,2.91-2.47-.08-4.95-.1-7.41.09-.68.05-1.29.95-1.93,1.46.6.56,1.16,1.53,1.82,1.61,1.92.23,3.88.18,5.82.1,2.15-.09,2.12,1.28,2.15,2.78.03,1.58-.13,2.8-2.23,2.68-1.93-.11-3.9-.12-5.81.13-.65.08-1.51,1-1.7,1.69-.36,1.28.45,1.91,1.79,1.89,2.56-.02,5.12.04,7.68.02,2.66-.02,1.9,1.96,2.02,3.41.13,1.55-.26,2.47-2.16,2.43-4.94-.11-9.89-.09-14.83-.02-1.52.02-2.04-.51-2.01-1.98.06-3.35.02-6.71.01-10.06Z"/>
  <path class="cls-1" d="M66.78,144.79c-4.46-2.96-7.42-3.16-9.5-.82-2.06,2.33-2.05,6.78.03,9.08,2.25,2.48,4.95,2.32,9.45-.7,1.39,1.29,2.83,2.63,4.38,4.08-3.56,4.59-8.19,5.18-13.05,4.39-4.73-.77-7.98-3.67-9.4-8.31-1.61-5.28.29-11.33,4.25-14.09,4.71-3.28,11.45-3.32,15.95-.09,2.51,1.8,2.54,2.2.27,4.26-.78.71-1.54,1.44-2.38,2.22Z"/>
  <path class="cls-1" d="M108.54,148.37c0-3.17.06-6.35-.02-9.52-.05-1.67.5-2.39,2.26-2.36,4.67.08,9.35.11,14.02,0,2.31-.06,2.28,1.3,2.23,2.91-.05,1.52.22,3.1-2.18,2.97-2.29-.12-4.59.05-6.88-.02-1.76-.05-2.01.96-2.02,2.36,0,1.37.39,2.19,1.95,2.14,2.03-.06,4.06.04,6.08,0,2.24-.06,1.73,1.58,1.69,2.77-.04,1.23.73,3.07-1.68,3.07-1.85,0-3.71.08-5.55,0-1.81-.08-2.65.65-2.52,2.46.01.18,0,.35,0,.53-.02,5.47.72,4.86-5.25,4.96-1.67.03-2.17-.68-2.15-2.2.04-3.35.01-6.7.02-10.05Z"/>
  <path class="cls-1" d="M150.42,152.7c-2.47,0-4.75.08-7.02-.02-1.9-.08-2.84.6-2.67,2.58.06.7-.07,1.42.02,2.11.31,2.46-.5,3.44-3.19,3.27-4.21-.26-4.23-.08-4.23-4.4,0-5.73.08-11.47-.03-17.2-.04-2,.66-2.61,2.59-2.57,4.59.1,9.18.13,13.76,0,2.33-.06,2.28,1.3,2.23,2.9-.05,1.5.28,3.12-2.15,2.99-2.29-.12-4.59.03-6.88-.05-1.66-.05-2.14.73-2.12,2.25.01,1.49.44,2.34,2.11,2.29,2.46-.07,4.92-.02,7.58-.02v5.85Z"/>
  <path class="cls-1" d="M112.1,180.55c-.02,2.09-1.61,3.67-3.73,3.51-2.11-.16-3.39-1.32-3.47-3.52-.07-2.08,1.56-3.6,3.71-3.53,2.03.07,3.5,1.56,3.48,3.54ZM108.54,183.96c1.06-1.61,2.01-2.46,2.18-3.44.27-1.57-.91-2.64-2.36-2.27-.86.22-1.95,1.52-2,2.38-.05.85,1.09,1.77,2.18,3.33Z"/>
  <path class="cls-1" d="M92.63,177.6v5.86c-1.1-.91-2.03-2.27-2.94-2.26-.92.01-1.82,1.38-2.77,2.2v-5.67c.97.85,1.83,2.19,2.83,2.3.77.09,1.71-1.37,2.89-2.42Z"/>
  <path class="cls-1" d="M162.99,180.67c-.52.33-1.29.83-2.07,1.33l3.27,1.5c0,.18.01.35.02.53-1.44-.12-3.89.15-4.13-.44-.66-1.68-.64-3.75-.35-5.59.07-.44,2.2-.56,3.47-.38-.76.49-1.52.99-2.29,1.48.75.56,1.49,1.13,2.08,1.57Z"/>
  <path class="cls-1" d="M142.75,183.24c1.08-.26,2.17-.52,3.45-.82-1.22-2-5.11-1.26-3.66-4.31.71-1.5,2.72-1.56,4.61-.17-1.42.2-2.45.34-3.49.48-.04.23-.08.47-.12.7.63.34,1.33.6,1.89,1.03.73.58,1.35,1.3,2.02,1.97-.82.66-1.57,1.52-2.5,1.9-.61.25-1.51-.21-2.27-.34.02-.14.05-.29.07-.43Z"/>
  <path class="cls-1" d="M130.13,177.68c.12,2.14,1.03,4.59-1.55,5.96-.84.44-2.63.26-3.31-.37-1.72-1.59-1.14-3.69-.74-5.63.25-.02.51-.03.76-.05.04.7-.07,1.45.16,2.08.41,1.12.92,2.99,1.57,3.08,1.84.23,2.03-1.43,2.06-2.93.02-.74.14-1.47.22-2.21.27.02.55.05.82.07Z"/>
</svg>