<?xml version="1.0" encoding="UTF-8"?>
<svg id="Capa_1" data-name="Capa 1" xmlns="http://www.w3.org/2000/svg" viewBox="0 0 251.12 199.28">
  <defs>
    <style>
      .cls-1 {
        fill: #1d1d1d;
        stroke-width: 0px;
      }
    </style>
  </defs>
  <path class="cls-1" d="M152.4,36.62c11.34,0,22.68.14,34.02-.04,12.2-.19,23.39,8.21,26,20.59,2.96,13.98-5.38,27.24-18.62,30.76-1.7.45-3.5.58-5.25.85-.96.15-1.52-.15-1.51-1.24.03-2.44-.05-4.88.07-7.32.02-.46.74-1.19,1.23-1.27,9.37-1.54,14.85-7.9,14.64-17.11-.18-8.06-6.91-14.76-15.47-15.35-1.38-.09-2.77-.09-4.15-.09-22.35,0-44.7,0-67.06,0-2.73,0-2.73-.01-2.74-2.69,0-1.71.09-3.44-.03-5.14-.11-1.62.57-2,2.07-1.99,7.85.06,15.69.03,23.54.03,4.42,0,8.84,0,13.25,0Z"/>
  <path class="cls-1" d="M183.59,67.6c-1.12.06-1.96.14-2.81.14-36.92.01-73.85,0-110.77.05-1.71,0-2.37-.46-2.25-2.23.14-1.97.08-3.96,0-5.93-.05-1.33.38-1.94,1.81-1.85,1.51.09,3.03.02,4.55.02,35.61,0,71.21.02,106.82.03,2.64,0,2.64.02,2.64,2.75,0,2.29,0,4.58,0,7.03Z"/>
  <path class="cls-1" d="M125.58,78.91c14.18,0,28.36,0,42.54,0,2.97,0,2.97.02,2.98,3.07,0,1.78-.03,3.56,0,5.34.02,1.1-.47,1.57-1.54,1.53-.46-.02-.92,0-1.38,0-28.49,0-56.98,0-85.47.05-1.8,0-2.51-.49-2.37-2.34.14-1.84.12-3.7,0-5.54-.1-1.62.46-2.19,2.12-2.16,5.41.08,10.82.03,16.22.03,8.97,0,17.94,0,26.91,0Z"/>
  <path class="cls-1" d="M150.25,25.41c-11.2,0-22.41,0-33.61,0-3.04,0-3.05-.01-3.05-2.96,0-1.78.03-3.56-.02-5.34-.03-1.2.27-1.74,1.66-1.74,23.26.05,46.53.05,69.79,0,1.59,0,2.07.54,2,2.05-.1,1.97-.13,3.96,0,5.93.12,1.72-.6,2.09-2.17,2.08-11.53-.05-23.07-.03-34.6-.03Z"/>
  <path class="cls-1" d="M125.85,100.19c8.11,0,16.21.05,24.32-.04,1.85-.02,2.44.59,2.31,2.39-.14,1.84-.11,3.69-.01,5.53.08,1.57-.56,2.03-2.07,2.02-8.9-.05-17.8-.02-26.69-.02-7.38,0-14.76,0-22.15,0-2.58,0-2.58-.02-2.59-2.66,0-1.65.13-3.31-.03-4.94-.19-1.93.67-2.32,2.39-2.3,8.17.07,16.35.03,24.52.03Z"/>
  <path class="cls-1" d="M89.58,16.66c.37.93.78,1.85,1.11,2.8.72,2.05,1.49,4.08,2.07,6.17.36,1.29,1.1,1.65,2.29,1.64,3.15-.02,6.29,0,9.44,0,.06.21.13.42.19.63-1.18.94-2.35,1.89-3.54,2.81-.94.73-1.89,1.43-2.84,2.13-2.63,1.93-2.61,1.92-1.57,5.12.8,2.49,1.52,5,2.38,7.82-.63-.21-1.06-.25-1.37-.47-2.38-1.65-4.77-3.28-7.07-5.03-.96-.73-1.65-.74-2.6-.03-2.1,1.58-4.28,3.06-6.43,4.57-.51.36-1.05.67-1.96.72.79-2.6,1.52-5.22,2.38-7.81.97-2.93.99-2.89-1.39-4.66-2.21-1.64-4.36-3.35-6.92-5.33.92-.13,1.44-.25,1.97-.27,2.5-.08,5.01-.19,7.51-.17,1.51.01,2.41-.42,2.87-2.01.84-2.88,1.93-5.68,2.92-8.52.19-.03.38-.06.57-.1Z"/>
  <path class="cls-1" d="M73.43,140.59c-.61,1.26-1.24,2.52-1.84,3.78-.95,2.02-1.79,4.1-2.88,6.05-.35.63-1.33,1.26-2.02,1.25-.72,0-1.75-.62-2.08-1.26-1.42-2.74-2.63-5.58-3.93-8.38-.23-.5-.53-.98-1.29-1.42-.06.51-.18,1.03-.18,1.54,0,3.36-.07,6.72.05,10.08.06,1.61-.8,1.63-1.97,1.64-1.2.01-1.98-.08-1.96-1.65.08-5.93.05-11.86.02-17.79,0-1.09.38-1.47,1.49-1.51,3.45-.14,3.44-.19,4.89,2.88,1.54,3.24,3.1,6.47,4.87,10.18.78-1.43,1.36-2.4,1.85-3.43,1.27-2.67,2.49-5.37,3.75-8.04.64-1.36,4.31-2.33,5.42-1.37.32.28.4.94.41,1.43.03,5.93-.02,11.86.04,17.79.02,1.72-1.09,1.45-2.11,1.5-1.09.06-1.93-.02-1.89-1.51.08-3.16.03-6.32.03-9.49,0-.7,0-1.4,0-2.09-.22-.07-.45-.13-.67-.2Z"/>
  <path class="cls-1" d="M225.65,153.66c-2.45.42-4.36.53-5.92-1.88-2.21-3.42-4.86-6.55-7.31-9.81-.27-.35-.44-.77-.66-1.16-.21.11-.42.21-.63.32-.05.74-.15,1.48-.15,2.21-.02,2.77-.11,5.54.03,8.3.09,1.73-.44,2.27-2.2,2.29-1.9.02-2.13-.8-2.1-2.39.08-5.4,0-10.81.07-16.21.01-.79.53-2.24.79-2.24,1.28.02,3.07,0,3.74.79,2.95,3.44,5.58,7.16,8.34,10.77.37.49.8.94,1.2,1.41.18-.05.36-.11.54-.16v-12.42c.44-.31.54-.43.65-.44q3.61-.32,3.62,3.23c0,5.73,0,11.46,0,17.4Z"/>
  <path class="cls-1" d="M130.35,153.43c-3.51,1.09-4.68.67-6.17-2.04-.22-.4-.43-.81-.66-1.21-1.19-2.11-3.34-3.01-5.53-2.21-.37.14-.75.71-.82,1.13-.13.77-.14,1.59-.03,2.36.25,1.88-.44,2.56-2.39,2.46-1.48-.08-2.08-.35-2.05-1.99.1-5.66.09-11.33,0-17-.02-1.57.48-2.11,2.03-2.01,3.28.2,6.58.11,9.84.46,2.86.31,4.87,2.06,5.49,4.95.62,2.92.2,5.76-2.26,7.73-1.32,1.06-1.12,1.8-.34,2.92.99,1.43,1.89,2.92,2.87,4.44ZM117.15,140.44c0,.85-.12,1.73.05,2.55.09.43.66,1.09,1.02,1.1,1.76.06,3.56.08,5.29-.18,1.5-.23,2.33-1.37,2.51-2.9.25-2.16-.79-3.61-2.97-4.18-4.55-1.2-5.93-.35-5.9,3.62Z"/>
  <path class="cls-1" d="M176.86,153.5c2.82-6.53,5.59-12.92,8.32-19.33.44-1.02,1.13-1.41,2.16-1.21,1.18.23,2.74-.76,3.48.97,2.73,6.41,5.45,12.82,8.16,19.23.04.1-.03.24-.04.37-3.18.97-4.15.61-5.34-2.15-.47-1.09-1.08-1.68-2.36-1.64-2.3.08-4.62-.08-6.92.08-.67.05-1.59.67-1.89,1.28-1.49,3.03-2,3.33-5.57,2.4ZM191.5,146.17c-1.22-2.93-2.25-5.42-3.29-7.91-.19,0-.38,0-.57,0-1.02,2.54-2.03,5.08-3.16,7.9h7.02Z"/>
  <path class="cls-1" d="M47.99,153.87c-1.22,0-2.01-.1-2.76.02-1.64.26-2.54-.52-2.84-1.98-.37-1.8-1.45-2.27-3.14-2.17-1.97.11-3.96.09-5.93,0-1.25-.06-1.91.42-2.4,1.54-1.26,2.93-1.7,3.09-5.43,2.26.57-1.34,1.12-2.64,1.68-3.93,2.2-5.07,4.5-10.09,6.56-15.21.76-1.88,2.11-1.38,3.41-1.46,1.19-.08,2.04.11,2.6,1.48,2.61,6.37,5.38,12.69,8.27,19.45ZM36.87,138.28c-.23.04-.45.07-.68.11-1,2.5-2,5.01-3.07,7.69h6.92c-1.15-2.82-2.17-5.31-3.18-7.8Z"/>
  <path class="cls-1" d="M102.3,145.33c-2.84,0-5.6.08-8.36-.02-2.24-.08-1.7,1.46-1.75,2.69-.05,1.23-.13,2.38,1.74,2.31,3.22-.11,6.44-.03,9.61-.03.98,3.2.69,3.6-2.39,3.6-3.82,0-7.65-.04-11.47.03-1.34.02-1.88-.39-1.86-1.8.06-5.8.06-11.61,0-17.41-.02-1.45.59-1.77,1.89-1.76,4.02.05,8.05.07,12.07-.01,1.45-.03,1.78.59,1.78,1.89,0,1.4-.55,1.85-1.89,1.82-2.5-.07-5.01.06-7.52-.05-1.84-.08-2.03.93-1.97,2.36.06,1.37-.3,2.9,1.95,2.78,1.84-.1,3.69-.02,5.54-.02,3.11,0,3.13.02,2.63,3.63Z"/>
  <path class="cls-1" d="M171.24,136.34c-.84,1-1.63,1.93-2.43,2.87-.83-.55-1.46-1.01-2.13-1.4-3.08-1.78-6.42-1.28-8.57,1.26-2.02,2.38-2.06,6.16-.11,8.59,2.06,2.56,5.5,3.2,8.56,1.59q2.61-1.38,4.47,1.22c-3.14,4.36-10.62,4.93-15.43,1.17-4.24-3.31-4.84-10.84-1.19-14.95,4.32-4.87,11.95-5.15,16.82-.36Z"/>
  <path class="cls-1" d="M139.4,133.1q4.35-.44,4.35,3.65c0,5.07-.1,10.14.04,15.21.06,2.15-1.23,1.85-2.55,1.93-1.33.08-2.05-.17-2.03-1.78.09-5.86.03-11.72.04-17.58,0-.45.09-.9.15-1.43Z"/>
  <path class="cls-1" d="M96.39,178.08c-.02,3.48-2.64,5.88-6.34,5.8-3.56-.07-6.11-2.53-6.14-5.91-.04-3.44,2.62-5.89,6.34-5.84,3.84.05,6.16,2.3,6.14,5.94ZM90.28,182.02c2.05-.02,3.97-2.06,3.91-4.15-.06-2.02-1.95-3.91-3.93-3.93-2.02-.02-3.96,2.03-3.9,4.13.06,1.99,2.02,3.97,3.92,3.95Z"/>
  <path class="cls-1" d="M158,177.77c0-1.38-.1-2.78.05-4.14.06-.51.7-1.32,1.12-1.35,2.16-.14,4.34-.11,6.52-.04.38.01.75.51,1.12.79-.36.28-.71.75-1.09.79-1.24.12-2.5.1-3.75.08-1.05-.01-1.58.41-1.6,1.51-.01,1.15.46,1.72,1.64,1.69.86-.02,1.73-.09,2.56.04.55.09,1.04.51,1.55.78-.49.29-.95.74-1.47.83-.83.14-1.71.07-2.56.04-1.14-.04-1.71.43-1.73,1.62-.01,1.17.51,1.68,1.67,1.65,1.25-.03,2.51-.07,3.75.05.42.04.79.59,1.18.91-.4.23-.79.66-1.19.67-2.04.07-4.08-.02-6.12.03-1.33.04-1.72-.59-1.66-1.81.06-1.38.01-2.77.02-4.15Z"/>
  <path class="cls-1" d="M182.6,177.96c0-1.38.03-2.76,0-4.15-.03-1.04.32-1.63,1.45-1.61,1.97.02,3.95-.04,5.92.04.4.02.78.49,1.17.75-.42.29-.81.78-1.25.82-1.17.12-2.39-.09-3.54.13-.55.11-1.38.96-1.33,1.4.07.61.73,1.46,1.32,1.65.9.29,1.96.04,2.93.16.43.05.8.48,1.2.73-.42.3-.81.76-1.27.85-.76.15-1.57.07-2.36.06-1.1-.02-1.94.16-1.95,1.57-.01,1.5.85,1.72,2.05,1.69,1.12-.03,2.24-.06,3.35.05.4.04.77.5,1.15.77-.32.27-.64.77-.97.78-2.3.08-4.61.12-6.9,0-.35-.02-.89-.87-.93-1.36-.13-1.44-.04-2.89-.04-4.34h0Z"/>
  <path class="cls-1" d="M69.74,181.89c-1.85,2.01-4.69,2.56-7.11,1.44-2.28-1.05-3.6-3.6-3.21-6.21.41-2.79,2.06-4.56,4.89-4.85,1.33-.13,2.75.1,4.05.47.52.15,1.26,1.24,1.13,1.64-.39,1.2-1.24.68-2.02.18-1.27-.82-2.8-1.06-3.84.03-.91.95-1.75,2.39-1.81,3.64-.13,2.81,3,4.42,5.71,3.05,1.03-.52,1.68-.64,2.23.6Z"/>
  <path class="cls-1" d="M111.61,177.98c0-1.45-.12-2.92.06-4.34.07-.52.84-1.31,1.35-1.36,1.83-.17,3.69-.13,5.53-.03.43.02.83.57,1.24.88-.39.25-.77.65-1.18.7-.98.12-1.97.09-2.96.07-1.27-.03-1.77.59-1.76,1.82,0,1.21.61,1.63,1.73,1.6.92-.02,1.86-.07,2.76.09.34.06.73.64.82,1.05.04.2-.51.73-.85.78-.84.12-1.71.11-2.56.04-1.37-.1-1.96.49-1.85,1.84.04.46.15,1-.04,1.37-.24.49-.75.84-1.14,1.25-.38-.4-1.06-.78-1.1-1.21-.14-1.5-.05-3.03-.05-4.55h0Z"/>
  <path class="cls-1" d="M134.96,177.88c-.02-5.68-.02-5.72,5.66-5.65.85,0,1.69.54,2.53.82-.83.28-1.64.63-2.49.82-.56.12-1.18.04-1.77,0-1.29-.07-1.73.58-1.74,1.8,0,1.19.48,1.69,1.65,1.63.92-.04,1.86-.1,2.76.06.41.07.72.67,1.07,1.02-.34.3-.65.66-1.04.86-.26.13-.65.04-.97.04-3.06.04-3.03.04-3.51,3.15-.07.43-.62.79-.95,1.18-.4-.4-1.11-.78-1.15-1.22-.14-1.5-.06-3.02-.06-4.54Z"/>
</svg>